<?xml version="1.0" encoding="iso-8859-1"?>
<!-- Generator: Adobe Illustrator 19.0.0, SVG Export Plug-In . SVG Version: 6.00 Build 0)  -->
<svg version="1.1" id="Layer_1" xmlns="http://www.w3.org/2000/svg" xmlns:xlink="http://www.w3.org/1999/xlink" x="0px" y="0px"
	 viewBox="0 0 512 512" style="enable-background:new 0 0 512 512;" xml:space="preserve">
<rect x="187.317" y="387.122" style="fill:#78B9EB;" width="137.366" height="74.927"/>
<rect y="31.22" style="fill:#0052B4;" width="512" height="374.634"/>
<rect x="256" y="31.22" style="fill:#003778;" width="256" height="374.634"/>
<rect x="143.61" y="443.317" style="fill:#AED5F3;" width="224.78" height="37.463"/>
<rect x="256" y="443.317" style="fill:#93C7EF;" width="112.39" height="37.463"/>
<g>
	<path style="fill:#FFFFFF;" d="M247.41,261.572c0-5.801-0.731-11.433-2.09-16.817l18.477-10.667l-18.732-32.443l-18.521,10.693
		c-8.048-7.82-17.999-13.682-29.085-16.83v-21.349h-37.463v21.349c-11.087,3.148-21.036,9.01-29.085,16.829l-18.519-10.693
		l-18.732,32.443l18.476,10.667c-1.36,5.385-2.09,11.017-2.09,16.819c0,5.802,0.731,11.434,2.09,16.819l-18.476,10.667
		l18.732,32.443l18.519-10.693c8.05,7.819,17.999,13.68,29.085,16.829v21.349h37.463v-21.349c11.087-3.148,21.037-9.01,29.085-16.83
		l18.521,10.693l18.732-32.443l-18.477-10.667C246.679,273.006,247.41,267.373,247.41,261.572z M178.727,292.792
		c-17.214,0-31.22-14.005-31.22-31.22s14.005-31.219,31.22-31.219s31.22,14.005,31.22,31.219S195.941,292.792,178.727,292.792z"/>
	<path style="fill:#FFFFFF;" d="M405.854,192.889v-37.463h-21.942c-1.144-3.213-2.576-6.349-4.317-9.366
		c-1.743-3.017-3.743-5.826-5.953-8.422l10.97-19.004l-32.443-18.732l-10.979,19.018c-6.863-1.286-13.807-1.292-20.542-0.034
		l-10.962-18.984l-32.443,18.732l10.977,19.013c-4.518,5.296-7.957,11.339-10.23,17.779H256v37.463h21.957
		c1.13,3.193,2.55,6.329,4.303,9.366c1.752,3.036,3.766,5.826,5.964,8.401l-10.984,19.025l32.443,18.732l10.993-19.041
		c3.402,0.634,6.862,0.97,10.342,0.97c3.388,0,6.791-0.321,10.169-0.945l10.979,19.016l32.443-18.732l-10.959-18.984
		c4.457-5.205,7.925-11.22,10.242-17.808H405.854z M314.705,183.523c-5.165-8.945-2.089-20.424,6.856-25.589
		c2.887-1.666,6.089-2.518,9.336-2.518c1.627,0,3.266,0.214,4.879,0.647c4.833,1.295,8.871,4.394,11.374,8.728
		c5.164,8.945,2.088,20.423-6.857,25.588C331.346,195.543,319.87,192.468,314.705,183.523z"/>
</g>
<g>
</g>
<g>
</g>
<g>
</g>
<g>
</g>
<g>
</g>
<g>
</g>
<g>
</g>
<g>
</g>
<g>
</g>
<g>
</g>
<g>
</g>
<g>
</g>
<g>
</g>
<g>
</g>
<g>
</g>
</svg>
