<?xml version="1.0" encoding="utf-8"?><svg version="1.1" id="Layer_1" xmlns="http://www.w3.org/2000/svg" xmlns:xlink="http://www.w3.org/1999/xlink" x="0px" y="0px" viewBox="0 0 119.06 122.88" style="enable-background:new 0 0 119.06 122.88" xml:space="preserve"><style type="text/css"><![CDATA[
	.st0{fill:#F4BB2C;}
	.st1{fill:#393939;}
	.st2{fill-rule:evenodd;clip-rule:evenodd;fill:#FFFFFF;}
]]></style><g><path class="st1" d="M87.29,77.05c-0.82,1.31-1.92,2.32-3.17,2.99c-1.11,0.6-2.34,0.93-3.56,0.97c-1.24,0.04-2.48-0.24-3.61-0.82 c-0.77-0.41-1.48-0.96-2.1-1.67L87.29,77.05L87.29,77.05L87.29,77.05L87.29,77.05z M82.09,2.37c0.04-0.69,0.35-1.3,0.83-1.73 c0.47-0.42,1.1-0.66,1.78-0.63V0c0.06,0,0.11,0.01,0.17,0.02c0.63,0.07,1.19,0.38,1.58,0.82c0.42,0.47,0.66,1.09,0.63,1.78l0.01,0 c0,0.04,0,0.09-0.01,0.13l-0.3,5.33h0.01c0,0.06-0.01,0.11-0.02,0.17c-0.07,0.64-0.38,1.19-0.82,1.58 c-0.47,0.42-1.1,0.66-1.78,0.63v0.01c-0.06,0-0.11-0.01-0.17-0.02c-0.64-0.07-1.19-0.38-1.58-0.82c-0.42-0.47-0.66-1.1-0.63-1.78 l-0.01,0c0-0.04,0-0.09,0.01-0.13L82.09,2.37L82.09,2.37L82.09,2.37L82.09,2.37z M54.69,10.88c-0.49-0.49-0.74-1.13-0.74-1.77 c-0.01-0.64,0.24-1.28,0.72-1.77c0.49-0.49,1.13-0.74,1.77-0.74c0.64-0.01,1.28,0.24,1.77,0.72l3.89,3.86 c0.49,0.49,0.74,1.13,0.74,1.77c0,0.64-0.24,1.28-0.72,1.77c-0.49,0.49-1.13,0.74-1.77,0.74c-0.65,0.01-1.28-0.24-1.77-0.72 L54.69,10.88L54.69,10.88L54.69,10.88L54.69,10.88z M47.28,38.2c-0.68-0.01-1.29-0.29-1.73-0.73c-0.45-0.45-0.73-1.08-0.74-1.77 c0-0.69,0.28-1.32,0.73-1.77s1.08-0.73,1.77-0.73l5.47-0.01c0.69,0,1.32,0.28,1.77,0.73s0.73,1.08,0.73,1.77l0,0.04l0.01,0 l-0.01,0.09c-0.03,0.64-0.31,1.22-0.73,1.64c-0.45,0.45-1.08,0.73-1.77,0.73l-0.04,0l0,0.01l-0.06,0L47.28,38.2L47.28,38.2 L47.28,38.2L47.28,38.2z M115.59,32.58l0.08,0c0.65-0.02,1.25,0.21,1.71,0.61c0.48,0.42,0.8,1.03,0.86,1.71l0,0.03 c0.01,0,0,0.07,0,0.08c0.02,0.65-0.21,1.25-0.61,1.71c-0.42,0.48-1.03,0.8-1.71,0.86l-5.46,0.4c-0.69,0.05-1.33-0.19-1.81-0.61 c-0.49-0.42-0.81-1.03-0.86-1.71c-0.05-0.69,0.19-1.33,0.61-1.81c0.42-0.48,1.03-0.81,1.71-0.86 C111.93,32.85,113.76,32.69,115.59,32.58L115.59,32.58L115.59,32.58L115.59,32.58L115.59,32.58z M105.49,10.47 c0.41-0.56,0.99-0.9,1.62-1.01c0.63-0.1,1.29,0.03,1.86,0.44l0.01,0.01c0.56,0.4,0.91,0.99,1.01,1.62c0.1,0.63-0.03,1.29-0.43,1.86 l-3.18,4.45c-0.4,0.56-0.99,0.91-1.63,1.02c-0.63,0.1-1.3-0.03-1.86-0.44c-0.56-0.4-0.91-1-1.02-1.63 c-0.1-0.63,0.03-1.29,0.44-1.86L105.49,10.47L105.49,10.47L105.49,10.47L105.49,10.47z M28.9,110.47V74.7h16.09 c6.82,1.22,13.64,4.92,20.47,9.22l12.5,0c5.66,0.34,8.62,6.08,3.13,9.84c-4.38,3.21-10.16,3.03-16.09,2.5 c-4.09-0.2-4.27,5.29,0,5.31c1.48,0.11,3.09-0.23,4.5-0.23c7.4-0.01,13.49-1.42,17.22-7.26l1.88-4.38l18.59-9.22 c9.3-3.06,15.91,6.67,9.06,13.43c-13.47,9.8-27.28,17.86-41.4,24.37c-10.26,6.24-20.52,6.03-30.77,0L28.9,110.47L28.9,110.47 L28.9,110.47L28.9,110.47z M0,71.26h24.06v42.8H0V71.26L0,71.26L0,71.26z M89.42,64.02l-0.46,1.87l-0.14,1.34l-16.23,1.9 c-0.03-0.96-0.15-2.01-0.36-3.1L89.42,64.02L89.42,64.02L89.42,64.02L89.42,64.02z M88.69,70.16l-0.01,0.81l0.01,0.28 c0.03,0.53,0.02,1.07-0.03,1.59l-0.28,1.16L73.3,75.77l-0.24-0.61l-0.51-2.42l0.01-0.7L88.69,70.16L88.69,70.16L88.69,70.16 L88.69,70.16z"/><path class="st0" d="M67.33,54.79c-1.77-2.16-3.6-4.4-5.01-7.65c-1.37-3.21-2.09-6.5-1.96-9.89c0.14-3.39,1.11-6.86,3.1-10.41 c0.01-0.03,0.03-0.04,0.04-0.07l0,0c2.59-4.08,6.11-6.76,9.99-8.19c3.25-1.21,6.75-1.55,10.16-1.13c3.4,0.42,6.7,1.59,9.56,3.41 c3.64,2.31,6.58,5.66,8.13,9.82c0.84,2.25,1.37,4.76,1.36,7.48c-0.01,2.71-0.56,5.62-1.91,8.67c-2.06,4.68-6.69,9.62-9.77,14.19 c-0.16-0.04-0.32-0.05-0.49-0.03c-6.34,0.74-12.68,1.48-19.01,2.22C70.58,60.07,69.08,56.93,67.33,54.79L67.33,54.79L67.33,54.79 L67.33,54.79z"/><path class="st2" d="M73.02,51.8L73.02,51.8c-0.75-1.3-0.42-2.9,0.74-3.57c0.42-0.24,0.88-0.33,1.34-0.28l-0.01-0.02 c1.72,0.38,2.58-0.26,2.27-1.54l-2.09-3.63c-0.23-0.41-0.09-0.93,0.31-1.17l3.34-1.93c1.57-0.13,1.07,1.39,1.29,2.39 c0.36,2.28,4,2.31,5.81,1.13c0.4-0.26,0.72-0.67,0.95-1.14c0.91-1.79,0.23-3.28-1.39-4.17c-0.83-0.45-1.46-0.81-0.65-1.71 l3.17-1.81c0.41-0.23,0.93-0.09,1.17,0.31l1.83,3.17c1.05,1.39,2.23,1.09,2.82-0.8l0.01,0.02c0.19-0.42,0.5-0.78,0.91-1.02 c1.16-0.67,2.71-0.16,3.46,1.13l0,0c0.75,1.3,0.41,2.89-0.75,3.56c-0.41,0.24-0.88,0.33-1.34,0.28l0.01,0.02 c-1.94-0.43-2.78,0.44-2.11,2.04l1.83,3.17c0.24,0.41,0.09,0.93-0.31,1.17l-3.3,1.91c-1.5,0.55-2.55-0.76-2.13-2.62l-0.02,0.01 c0.04-0.46,0.22-0.47-0.02-0.89c-0.67-1.16-2.53-1.95-3.82-1.2c-1.3,0.75-2.45,3.27-1.78,4.43c0.24,0.41,0.6,0.72,1.02,0.91 l-0.06,0.04c1.83,0.58,2.17,1.69,0.94,2.71l-3.34,1.93c-0.41,0.24-0.93,0.09-1.17-0.31l-2.09-3.63c-0.95-0.91-1.94-0.48-2.47,1.2 l-0.01-0.02c-0.19,0.42-0.5,0.78-0.92,1.02C75.31,53.6,73.77,53.09,73.02,51.8L73.02,51.8L73.02,51.8L73.02,51.8z M65.4,37.29 c0.75,1.29,2.3,1.8,3.46,1.13c0.41-0.24,0.72-0.6,0.91-1.02l0.04,0.06c0.53-1.68,1.52-2.11,2.47-1.2l2.09,3.61 c0.24,0.41,0.76,0.55,1.17,0.31l3.21-1.85c2.34-1.01,2.23,0.3,2.18,1.79c-0.1,3.61,4.8,3.13,4.88,0.22 c0.07-2.29-2.15-1.99-2.67-3.33c-0.2-0.52,0.12-1.15,0.85-1.71l3.17-1.83c0.41-0.24,0.55-0.76,0.31-1.17l-1.83-3.16 c-0.67-1.61,0.17-2.47,2.11-2.04l-0.04-0.06c0.46,0.04,0.93-0.04,1.34-0.28c1.16-0.67,1.5-2.26,0.75-3.56 c-0.75-1.29-2.3-1.8-3.46-1.13c-0.41,0.24-0.72,0.6-0.92,1.02l-0.01-0.02c-0.6,1.89-1.77,2.19-2.82,0.8l-1.83-3.18 c-0.24-0.41-0.76-0.55-1.17-0.31l-3.3,1.91c-1.22,1.02-0.88,2.13,0.94,2.71l-0.01,0.01c0.42,0.19,0.78,0.5,1.02,0.91 c0.67,1.16,0.16,2.71-1.13,3.46c-1.3,0.75-2.89,0.41-3.56-0.75c-0.24-0.41-0.33-0.88-0.28-1.34l-0.06,0.04 c0.41-1.87-0.38-2.72-1.88-2.17l-3.35,1.93c-0.41,0.24-0.55,0.76-0.31,1.17l2.09,3.63c0.31,1.28-0.55,1.92-2.27,1.54l0.01,0.02 c-0.46-0.04-0.93,0.04-1.34,0.28C64.99,34.4,64.65,36,65.4,37.29L65.4,37.29L65.4,37.29L65.4,37.29z"/></g></svg>